<?xml version="1.0" encoding="utf-8" standalone="no"?>
<!DOCTYPE svg PUBLIC "-//W3C//DTD SVG 1.1//EN"
  "http://www.w3.org/Graphics/SVG/1.1/DTD/svg11.dtd">
<svg xmlns:xlink="http://www.w3.org/1999/xlink" width="576pt" height="432pt" viewBox="0 0 576 432" xmlns="http://www.w3.org/2000/svg" version="1.1">
 <metadata>
  <rdf:RDF xmlns:dc="http://purl.org/dc/elements/1.1/" xmlns:cc="http://creativecommons.org/ns#" xmlns:rdf="http://www.w3.org/1999/02/22-rdf-syntax-ns#">
   <cc:Work>
    <dc:type rdf:resource="http://purl.org/dc/dcmitype/StillImage"/>
    <dc:date>2025-04-01T17:28:09.013502</dc:date>
    <dc:format>image/svg+xml</dc:format>
    <dc:creator>
     <cc:Agent>
      <dc:title>Matplotlib v3.6.3, https://matplotlib.org/</dc:title>
     </cc:Agent>
    </dc:creator>
   </cc:Work>
  </rdf:RDF>
 </metadata>
 <defs>
  <style type="text/css">*{stroke-linejoin: round; stroke-linecap: butt}</style>
 </defs>
 <g id="figure_1">
  <g id="patch_1">
   <path d="M 0 432 
L 576 432 
L 576 0 
L 0 0 
z
" style="fill: #ffffff"/>
  </g>
  <g id="axes_1">
   <g id="patch_2">
    <path d="M 51.05 390.04 
L 565.2 390.04 
L 565.2 26.16 
L 51.05 26.16 
z
" style="fill: #ffffff"/>
   </g>
   <g id="matplotlib.axis_1">
    <g id="xtick_1">
     <g id="line2d_1">
      <path d="M 74.420455 390.04 
L 74.420455 26.16 
" clip-path="url(#p463cbcb321)" style="fill: none; stroke: #b0b0b0; stroke-width: 0.8; stroke-linecap: square"/>
     </g>
     <g id="line2d_2">
      <defs>
       <path id="mdd08497974" d="M 0 0 
L 0 3.5 
" style="stroke: #000000; stroke-width: 0.8"/>
      </defs>
      <g>
       <use xlink:href="#mdd08497974" x="74.420455" y="390.04" style="stroke: #000000; stroke-width: 0.8"/>
      </g>
     </g>
     <g id="text_1">
      <!-- 0 -->
      <g transform="translate(71.239205 404.638438) scale(0.1 -0.1)">
       <defs>
        <path id="DejaVuSans-30" d="M 2034 4250 
Q 1547 4250 1301 3770 
Q 1056 3291 1056 2328 
Q 1056 1369 1301 889 
Q 1547 409 2034 409 
Q 2525 409 2770 889 
Q 3016 1369 3016 2328 
Q 3016 3291 2770 3770 
Q 2525 4250 2034 4250 
z
M 2034 4750 
Q 2819 4750 3233 4129 
Q 3647 3509 3647 2328 
Q 3647 1150 3233 529 
Q 2819 -91 2034 -91 
Q 1250 -91 836 529 
Q 422 1150 422 2328 
Q 422 3509 836 4129 
Q 1250 4750 2034 4750 
z
" transform="scale(0.015625)"/>
       </defs>
       <use xlink:href="#DejaVuSans-30"/>
      </g>
     </g>
    </g>
    <g id="xtick_2">
     <g id="line2d_3">
      <path d="M 132.846591 390.04 
L 132.846591 26.16 
" clip-path="url(#p463cbcb321)" style="fill: none; stroke: #b0b0b0; stroke-width: 0.8; stroke-linecap: square"/>
     </g>
     <g id="line2d_4">
      <g>
       <use xlink:href="#mdd08497974" x="132.846591" y="390.04" style="stroke: #000000; stroke-width: 0.8"/>
      </g>
     </g>
     <g id="text_2">
      <!-- 5 -->
      <g transform="translate(129.665341 404.638438) scale(0.1 -0.1)">
       <defs>
        <path id="DejaVuSans-35" d="M 691 4666 
L 3169 4666 
L 3169 4134 
L 1269 4134 
L 1269 2991 
Q 1406 3038 1543 3061 
Q 1681 3084 1819 3084 
Q 2600 3084 3056 2656 
Q 3513 2228 3513 1497 
Q 3513 744 3044 326 
Q 2575 -91 1722 -91 
Q 1428 -91 1123 -41 
Q 819 9 494 109 
L 494 744 
Q 775 591 1075 516 
Q 1375 441 1709 441 
Q 2250 441 2565 725 
Q 2881 1009 2881 1497 
Q 2881 1984 2565 2268 
Q 2250 2553 1709 2553 
Q 1456 2553 1204 2497 
Q 953 2441 691 2322 
L 691 4666 
z
" transform="scale(0.015625)"/>
       </defs>
       <use xlink:href="#DejaVuSans-35"/>
      </g>
     </g>
    </g>
    <g id="xtick_3">
     <g id="line2d_5">
      <path d="M 191.272727 390.04 
L 191.272727 26.16 
" clip-path="url(#p463cbcb321)" style="fill: none; stroke: #b0b0b0; stroke-width: 0.8; stroke-linecap: square"/>
     </g>
     <g id="line2d_6">
      <g>
       <use xlink:href="#mdd08497974" x="191.272727" y="390.04" style="stroke: #000000; stroke-width: 0.8"/>
      </g>
     </g>
     <g id="text_3">
      <!-- 10 -->
      <g transform="translate(184.910227 404.638438) scale(0.1 -0.1)">
       <defs>
        <path id="DejaVuSans-31" d="M 794 531 
L 1825 531 
L 1825 4091 
L 703 3866 
L 703 4441 
L 1819 4666 
L 2450 4666 
L 2450 531 
L 3481 531 
L 3481 0 
L 794 0 
L 794 531 
z
" transform="scale(0.015625)"/>
       </defs>
       <use xlink:href="#DejaVuSans-31"/>
       <use xlink:href="#DejaVuSans-30" x="63.623047"/>
      </g>
     </g>
    </g>
    <g id="xtick_4">
     <g id="line2d_7">
      <path d="M 249.698864 390.04 
L 249.698864 26.16 
" clip-path="url(#p463cbcb321)" style="fill: none; stroke: #b0b0b0; stroke-width: 0.8; stroke-linecap: square"/>
     </g>
     <g id="line2d_8">
      <g>
       <use xlink:href="#mdd08497974" x="249.698864" y="390.04" style="stroke: #000000; stroke-width: 0.8"/>
      </g>
     </g>
     <g id="text_4">
      <!-- 15 -->
      <g transform="translate(243.336364 404.638438) scale(0.1 -0.1)">
       <use xlink:href="#DejaVuSans-31"/>
       <use xlink:href="#DejaVuSans-35" x="63.623047"/>
      </g>
     </g>
    </g>
    <g id="xtick_5">
     <g id="line2d_9">
      <path d="M 308.125 390.04 
L 308.125 26.16 
" clip-path="url(#p463cbcb321)" style="fill: none; stroke: #b0b0b0; stroke-width: 0.8; stroke-linecap: square"/>
     </g>
     <g id="line2d_10">
      <g>
       <use xlink:href="#mdd08497974" x="308.125" y="390.04" style="stroke: #000000; stroke-width: 0.8"/>
      </g>
     </g>
     <g id="text_5">
      <!-- 20 -->
      <g transform="translate(301.7625 404.638438) scale(0.1 -0.1)">
       <defs>
        <path id="DejaVuSans-32" d="M 1228 531 
L 3431 531 
L 3431 0 
L 469 0 
L 469 531 
Q 828 903 1448 1529 
Q 2069 2156 2228 2338 
Q 2531 2678 2651 2914 
Q 2772 3150 2772 3378 
Q 2772 3750 2511 3984 
Q 2250 4219 1831 4219 
Q 1534 4219 1204 4116 
Q 875 4013 500 3803 
L 500 4441 
Q 881 4594 1212 4672 
Q 1544 4750 1819 4750 
Q 2544 4750 2975 4387 
Q 3406 4025 3406 3419 
Q 3406 3131 3298 2873 
Q 3191 2616 2906 2266 
Q 2828 2175 2409 1742 
Q 1991 1309 1228 531 
z
" transform="scale(0.015625)"/>
       </defs>
       <use xlink:href="#DejaVuSans-32"/>
       <use xlink:href="#DejaVuSans-30" x="63.623047"/>
      </g>
     </g>
    </g>
    <g id="xtick_6">
     <g id="line2d_11">
      <path d="M 366.551136 390.04 
L 366.551136 26.16 
" clip-path="url(#p463cbcb321)" style="fill: none; stroke: #b0b0b0; stroke-width: 0.8; stroke-linecap: square"/>
     </g>
     <g id="line2d_12">
      <g>
       <use xlink:href="#mdd08497974" x="366.551136" y="390.04" style="stroke: #000000; stroke-width: 0.8"/>
      </g>
     </g>
     <g id="text_6">
      <!-- 25 -->
      <g transform="translate(360.188636 404.638438) scale(0.1 -0.1)">
       <use xlink:href="#DejaVuSans-32"/>
       <use xlink:href="#DejaVuSans-35" x="63.623047"/>
      </g>
     </g>
    </g>
    <g id="xtick_7">
     <g id="line2d_13">
      <path d="M 424.977273 390.04 
L 424.977273 26.16 
" clip-path="url(#p463cbcb321)" style="fill: none; stroke: #b0b0b0; stroke-width: 0.8; stroke-linecap: square"/>
     </g>
     <g id="line2d_14">
      <g>
       <use xlink:href="#mdd08497974" x="424.977273" y="390.04" style="stroke: #000000; stroke-width: 0.8"/>
      </g>
     </g>
     <g id="text_7">
      <!-- 30 -->
      <g transform="translate(418.614773 404.638438) scale(0.1 -0.1)">
       <defs>
        <path id="DejaVuSans-33" d="M 2597 2516 
Q 3050 2419 3304 2112 
Q 3559 1806 3559 1356 
Q 3559 666 3084 287 
Q 2609 -91 1734 -91 
Q 1441 -91 1130 -33 
Q 819 25 488 141 
L 488 750 
Q 750 597 1062 519 
Q 1375 441 1716 441 
Q 2309 441 2620 675 
Q 2931 909 2931 1356 
Q 2931 1769 2642 2001 
Q 2353 2234 1838 2234 
L 1294 2234 
L 1294 2753 
L 1863 2753 
Q 2328 2753 2575 2939 
Q 2822 3125 2822 3475 
Q 2822 3834 2567 4026 
Q 2313 4219 1838 4219 
Q 1578 4219 1281 4162 
Q 984 4106 628 3988 
L 628 4550 
Q 988 4650 1302 4700 
Q 1616 4750 1894 4750 
Q 2613 4750 3031 4423 
Q 3450 4097 3450 3541 
Q 3450 3153 3228 2886 
Q 3006 2619 2597 2516 
z
" transform="scale(0.015625)"/>
       </defs>
       <use xlink:href="#DejaVuSans-33"/>
       <use xlink:href="#DejaVuSans-30" x="63.623047"/>
      </g>
     </g>
    </g>
    <g id="xtick_8">
     <g id="line2d_15">
      <path d="M 483.403409 390.04 
L 483.403409 26.16 
" clip-path="url(#p463cbcb321)" style="fill: none; stroke: #b0b0b0; stroke-width: 0.8; stroke-linecap: square"/>
     </g>
     <g id="line2d_16">
      <g>
       <use xlink:href="#mdd08497974" x="483.403409" y="390.04" style="stroke: #000000; stroke-width: 0.8"/>
      </g>
     </g>
     <g id="text_8">
      <!-- 35 -->
      <g transform="translate(477.040909 404.638438) scale(0.1 -0.1)">
       <use xlink:href="#DejaVuSans-33"/>
       <use xlink:href="#DejaVuSans-35" x="63.623047"/>
      </g>
     </g>
    </g>
    <g id="xtick_9">
     <g id="line2d_17">
      <path d="M 541.829545 390.04 
L 541.829545 26.16 
" clip-path="url(#p463cbcb321)" style="fill: none; stroke: #b0b0b0; stroke-width: 0.8; stroke-linecap: square"/>
     </g>
     <g id="line2d_18">
      <g>
       <use xlink:href="#mdd08497974" x="541.829545" y="390.04" style="stroke: #000000; stroke-width: 0.8"/>
      </g>
     </g>
     <g id="text_9">
      <!-- 40 -->
      <g transform="translate(535.467045 404.638438) scale(0.1 -0.1)">
       <defs>
        <path id="DejaVuSans-34" d="M 2419 4116 
L 825 1625 
L 2419 1625 
L 2419 4116 
z
M 2253 4666 
L 3047 4666 
L 3047 1625 
L 3713 1625 
L 3713 1100 
L 3047 1100 
L 3047 0 
L 2419 0 
L 2419 1100 
L 313 1100 
L 313 1709 
L 2253 4666 
z
" transform="scale(0.015625)"/>
       </defs>
       <use xlink:href="#DejaVuSans-34"/>
       <use xlink:href="#DejaVuSans-30" x="63.623047"/>
      </g>
     </g>
    </g>
    <g id="text_10">
     <!-- Voltaje (VDS) -->
     <g transform="translate(275.21875 418.316562) scale(0.1 -0.1)">
      <defs>
       <path id="DejaVuSans-56" d="M 1831 0 
L 50 4666 
L 709 4666 
L 2188 738 
L 3669 4666 
L 4325 4666 
L 2547 0 
L 1831 0 
z
" transform="scale(0.015625)"/>
       <path id="DejaVuSans-6f" d="M 1959 3097 
Q 1497 3097 1228 2736 
Q 959 2375 959 1747 
Q 959 1119 1226 758 
Q 1494 397 1959 397 
Q 2419 397 2687 759 
Q 2956 1122 2956 1747 
Q 2956 2369 2687 2733 
Q 2419 3097 1959 3097 
z
M 1959 3584 
Q 2709 3584 3137 3096 
Q 3566 2609 3566 1747 
Q 3566 888 3137 398 
Q 2709 -91 1959 -91 
Q 1206 -91 779 398 
Q 353 888 353 1747 
Q 353 2609 779 3096 
Q 1206 3584 1959 3584 
z
" transform="scale(0.015625)"/>
       <path id="DejaVuSans-6c" d="M 603 4863 
L 1178 4863 
L 1178 0 
L 603 0 
L 603 4863 
z
" transform="scale(0.015625)"/>
       <path id="DejaVuSans-74" d="M 1172 4494 
L 1172 3500 
L 2356 3500 
L 2356 3053 
L 1172 3053 
L 1172 1153 
Q 1172 725 1289 603 
Q 1406 481 1766 481 
L 2356 481 
L 2356 0 
L 1766 0 
Q 1100 0 847 248 
Q 594 497 594 1153 
L 594 3053 
L 172 3053 
L 172 3500 
L 594 3500 
L 594 4494 
L 1172 4494 
z
" transform="scale(0.015625)"/>
       <path id="DejaVuSans-61" d="M 2194 1759 
Q 1497 1759 1228 1600 
Q 959 1441 959 1056 
Q 959 750 1161 570 
Q 1363 391 1709 391 
Q 2188 391 2477 730 
Q 2766 1069 2766 1631 
L 2766 1759 
L 2194 1759 
z
M 3341 1997 
L 3341 0 
L 2766 0 
L 2766 531 
Q 2569 213 2275 61 
Q 1981 -91 1556 -91 
Q 1019 -91 701 211 
Q 384 513 384 1019 
Q 384 1609 779 1909 
Q 1175 2209 1959 2209 
L 2766 2209 
L 2766 2266 
Q 2766 2663 2505 2880 
Q 2244 3097 1772 3097 
Q 1472 3097 1187 3025 
Q 903 2953 641 2809 
L 641 3341 
Q 956 3463 1253 3523 
Q 1550 3584 1831 3584 
Q 2591 3584 2966 3190 
Q 3341 2797 3341 1997 
z
" transform="scale(0.015625)"/>
       <path id="DejaVuSans-6a" d="M 603 3500 
L 1178 3500 
L 1178 -63 
Q 1178 -731 923 -1031 
Q 669 -1331 103 -1331 
L -116 -1331 
L -116 -844 
L 38 -844 
Q 366 -844 484 -692 
Q 603 -541 603 -63 
L 603 3500 
z
M 603 4863 
L 1178 4863 
L 1178 4134 
L 603 4134 
L 603 4863 
z
" transform="scale(0.015625)"/>
       <path id="DejaVuSans-65" d="M 3597 1894 
L 3597 1613 
L 953 1613 
Q 991 1019 1311 708 
Q 1631 397 2203 397 
Q 2534 397 2845 478 
Q 3156 559 3463 722 
L 3463 178 
Q 3153 47 2828 -22 
Q 2503 -91 2169 -91 
Q 1331 -91 842 396 
Q 353 884 353 1716 
Q 353 2575 817 3079 
Q 1281 3584 2069 3584 
Q 2775 3584 3186 3129 
Q 3597 2675 3597 1894 
z
M 3022 2063 
Q 3016 2534 2758 2815 
Q 2500 3097 2075 3097 
Q 1594 3097 1305 2825 
Q 1016 2553 972 2059 
L 3022 2063 
z
" transform="scale(0.015625)"/>
       <path id="DejaVuSans-20" transform="scale(0.015625)"/>
       <path id="DejaVuSans-28" d="M 1984 4856 
Q 1566 4138 1362 3434 
Q 1159 2731 1159 2009 
Q 1159 1288 1364 580 
Q 1569 -128 1984 -844 
L 1484 -844 
Q 1016 -109 783 600 
Q 550 1309 550 2009 
Q 550 2706 781 3412 
Q 1013 4119 1484 4856 
L 1984 4856 
z
" transform="scale(0.015625)"/>
       <path id="DejaVuSans-44" d="M 1259 4147 
L 1259 519 
L 2022 519 
Q 2988 519 3436 956 
Q 3884 1394 3884 2338 
Q 3884 3275 3436 3711 
Q 2988 4147 2022 4147 
L 1259 4147 
z
M 628 4666 
L 1925 4666 
Q 3281 4666 3915 4102 
Q 4550 3538 4550 2338 
Q 4550 1131 3912 565 
Q 3275 0 1925 0 
L 628 0 
L 628 4666 
z
" transform="scale(0.015625)"/>
       <path id="DejaVuSans-53" d="M 3425 4513 
L 3425 3897 
Q 3066 4069 2747 4153 
Q 2428 4238 2131 4238 
Q 1616 4238 1336 4038 
Q 1056 3838 1056 3469 
Q 1056 3159 1242 3001 
Q 1428 2844 1947 2747 
L 2328 2669 
Q 3034 2534 3370 2195 
Q 3706 1856 3706 1288 
Q 3706 609 3251 259 
Q 2797 -91 1919 -91 
Q 1588 -91 1214 -16 
Q 841 59 441 206 
L 441 856 
Q 825 641 1194 531 
Q 1563 422 1919 422 
Q 2459 422 2753 634 
Q 3047 847 3047 1241 
Q 3047 1584 2836 1778 
Q 2625 1972 2144 2069 
L 1759 2144 
Q 1053 2284 737 2584 
Q 422 2884 422 3419 
Q 422 4038 858 4394 
Q 1294 4750 2059 4750 
Q 2388 4750 2728 4690 
Q 3069 4631 3425 4513 
z
" transform="scale(0.015625)"/>
       <path id="DejaVuSans-29" d="M 513 4856 
L 1013 4856 
Q 1481 4119 1714 3412 
Q 1947 2706 1947 2009 
Q 1947 1309 1714 600 
Q 1481 -109 1013 -844 
L 513 -844 
Q 928 -128 1133 580 
Q 1338 1288 1338 2009 
Q 1338 2731 1133 3434 
Q 928 4138 513 4856 
z
" transform="scale(0.015625)"/>
      </defs>
      <use xlink:href="#DejaVuSans-56"/>
      <use xlink:href="#DejaVuSans-6f" x="60.658203"/>
      <use xlink:href="#DejaVuSans-6c" x="121.839844"/>
      <use xlink:href="#DejaVuSans-74" x="149.623047"/>
      <use xlink:href="#DejaVuSans-61" x="188.832031"/>
      <use xlink:href="#DejaVuSans-6a" x="250.111328"/>
      <use xlink:href="#DejaVuSans-65" x="277.894531"/>
      <use xlink:href="#DejaVuSans-20" x="339.417969"/>
      <use xlink:href="#DejaVuSans-28" x="371.205078"/>
      <use xlink:href="#DejaVuSans-56" x="410.21875"/>
      <use xlink:href="#DejaVuSans-44" x="478.626953"/>
      <use xlink:href="#DejaVuSans-53" x="555.628906"/>
      <use xlink:href="#DejaVuSans-29" x="619.105469"/>
     </g>
    </g>
   </g>
   <g id="matplotlib.axis_2">
    <g id="ytick_1">
     <g id="line2d_19">
      <path d="M 51.05 373.5 
L 565.2 373.5 
" clip-path="url(#p463cbcb321)" style="fill: none; stroke: #b0b0b0; stroke-width: 0.8; stroke-linecap: square"/>
     </g>
     <g id="line2d_20">
      <defs>
       <path id="md17835daed" d="M 0 0 
L -3.5 0 
" style="stroke: #000000; stroke-width: 0.8"/>
      </defs>
      <g>
       <use xlink:href="#md17835daed" x="51.05" y="373.5" style="stroke: #000000; stroke-width: 0.8"/>
      </g>
     </g>
     <g id="text_11">
      <!-- 0 -->
      <g transform="translate(37.6875 377.299219) scale(0.1 -0.1)">
       <use xlink:href="#DejaVuSans-30"/>
      </g>
     </g>
    </g>
    <g id="ytick_2">
     <g id="line2d_21">
      <path d="M 51.05 317.424933 
L 565.2 317.424933 
" clip-path="url(#p463cbcb321)" style="fill: none; stroke: #b0b0b0; stroke-width: 0.8; stroke-linecap: square"/>
     </g>
     <g id="line2d_22">
      <g>
       <use xlink:href="#md17835daed" x="51.05" y="317.424933" style="stroke: #000000; stroke-width: 0.8"/>
      </g>
     </g>
     <g id="text_12">
      <!-- 20 -->
      <g transform="translate(31.325 321.224151) scale(0.1 -0.1)">
       <use xlink:href="#DejaVuSans-32"/>
       <use xlink:href="#DejaVuSans-30" x="63.623047"/>
      </g>
     </g>
    </g>
    <g id="ytick_3">
     <g id="line2d_23">
      <path d="M 51.05 261.349865 
L 565.2 261.349865 
" clip-path="url(#p463cbcb321)" style="fill: none; stroke: #b0b0b0; stroke-width: 0.8; stroke-linecap: square"/>
     </g>
     <g id="line2d_24">
      <g>
       <use xlink:href="#md17835daed" x="51.05" y="261.349865" style="stroke: #000000; stroke-width: 0.8"/>
      </g>
     </g>
     <g id="text_13">
      <!-- 40 -->
      <g transform="translate(31.325 265.149084) scale(0.1 -0.1)">
       <use xlink:href="#DejaVuSans-34"/>
       <use xlink:href="#DejaVuSans-30" x="63.623047"/>
      </g>
     </g>
    </g>
    <g id="ytick_4">
     <g id="line2d_25">
      <path d="M 51.05 205.274798 
L 565.2 205.274798 
" clip-path="url(#p463cbcb321)" style="fill: none; stroke: #b0b0b0; stroke-width: 0.8; stroke-linecap: square"/>
     </g>
     <g id="line2d_26">
      <g>
       <use xlink:href="#md17835daed" x="51.05" y="205.274798" style="stroke: #000000; stroke-width: 0.8"/>
      </g>
     </g>
     <g id="text_14">
      <!-- 60 -->
      <g transform="translate(31.325 209.074017) scale(0.1 -0.1)">
       <defs>
        <path id="DejaVuSans-36" d="M 2113 2584 
Q 1688 2584 1439 2293 
Q 1191 2003 1191 1497 
Q 1191 994 1439 701 
Q 1688 409 2113 409 
Q 2538 409 2786 701 
Q 3034 994 3034 1497 
Q 3034 2003 2786 2293 
Q 2538 2584 2113 2584 
z
M 3366 4563 
L 3366 3988 
Q 3128 4100 2886 4159 
Q 2644 4219 2406 4219 
Q 1781 4219 1451 3797 
Q 1122 3375 1075 2522 
Q 1259 2794 1537 2939 
Q 1816 3084 2150 3084 
Q 2853 3084 3261 2657 
Q 3669 2231 3669 1497 
Q 3669 778 3244 343 
Q 2819 -91 2113 -91 
Q 1303 -91 875 529 
Q 447 1150 447 2328 
Q 447 3434 972 4092 
Q 1497 4750 2381 4750 
Q 2619 4750 2861 4703 
Q 3103 4656 3366 4563 
z
" transform="scale(0.015625)"/>
       </defs>
       <use xlink:href="#DejaVuSans-36"/>
       <use xlink:href="#DejaVuSans-30" x="63.623047"/>
      </g>
     </g>
    </g>
    <g id="ytick_5">
     <g id="line2d_27">
      <path d="M 51.05 149.199731 
L 565.2 149.199731 
" clip-path="url(#p463cbcb321)" style="fill: none; stroke: #b0b0b0; stroke-width: 0.8; stroke-linecap: square"/>
     </g>
     <g id="line2d_28">
      <g>
       <use xlink:href="#md17835daed" x="51.05" y="149.199731" style="stroke: #000000; stroke-width: 0.8"/>
      </g>
     </g>
     <g id="text_15">
      <!-- 80 -->
      <g transform="translate(31.325 152.998949) scale(0.1 -0.1)">
       <defs>
        <path id="DejaVuSans-38" d="M 2034 2216 
Q 1584 2216 1326 1975 
Q 1069 1734 1069 1313 
Q 1069 891 1326 650 
Q 1584 409 2034 409 
Q 2484 409 2743 651 
Q 3003 894 3003 1313 
Q 3003 1734 2745 1975 
Q 2488 2216 2034 2216 
z
M 1403 2484 
Q 997 2584 770 2862 
Q 544 3141 544 3541 
Q 544 4100 942 4425 
Q 1341 4750 2034 4750 
Q 2731 4750 3128 4425 
Q 3525 4100 3525 3541 
Q 3525 3141 3298 2862 
Q 3072 2584 2669 2484 
Q 3125 2378 3379 2068 
Q 3634 1759 3634 1313 
Q 3634 634 3220 271 
Q 2806 -91 2034 -91 
Q 1263 -91 848 271 
Q 434 634 434 1313 
Q 434 1759 690 2068 
Q 947 2378 1403 2484 
z
M 1172 3481 
Q 1172 3119 1398 2916 
Q 1625 2713 2034 2713 
Q 2441 2713 2670 2916 
Q 2900 3119 2900 3481 
Q 2900 3844 2670 4047 
Q 2441 4250 2034 4250 
Q 1625 4250 1398 4047 
Q 1172 3844 1172 3481 
z
" transform="scale(0.015625)"/>
       </defs>
       <use xlink:href="#DejaVuSans-38"/>
       <use xlink:href="#DejaVuSans-30" x="63.623047"/>
      </g>
     </g>
    </g>
    <g id="ytick_6">
     <g id="line2d_29">
      <path d="M 51.05 93.124663 
L 565.2 93.124663 
" clip-path="url(#p463cbcb321)" style="fill: none; stroke: #b0b0b0; stroke-width: 0.8; stroke-linecap: square"/>
     </g>
     <g id="line2d_30">
      <g>
       <use xlink:href="#md17835daed" x="51.05" y="93.124663" style="stroke: #000000; stroke-width: 0.8"/>
      </g>
     </g>
     <g id="text_16">
      <!-- 100 -->
      <g transform="translate(24.9625 96.923882) scale(0.1 -0.1)">
       <use xlink:href="#DejaVuSans-31"/>
       <use xlink:href="#DejaVuSans-30" x="63.623047"/>
       <use xlink:href="#DejaVuSans-30" x="127.246094"/>
      </g>
     </g>
    </g>
    <g id="ytick_7">
     <g id="line2d_31">
      <path d="M 51.05 37.049596 
L 565.2 37.049596 
" clip-path="url(#p463cbcb321)" style="fill: none; stroke: #b0b0b0; stroke-width: 0.8; stroke-linecap: square"/>
     </g>
     <g id="line2d_32">
      <g>
       <use xlink:href="#md17835daed" x="51.05" y="37.049596" style="stroke: #000000; stroke-width: 0.8"/>
      </g>
     </g>
     <g id="text_17">
      <!-- 120 -->
      <g transform="translate(24.9625 40.848815) scale(0.1 -0.1)">
       <use xlink:href="#DejaVuSans-31"/>
       <use xlink:href="#DejaVuSans-32" x="63.623047"/>
       <use xlink:href="#DejaVuSans-30" x="127.246094"/>
      </g>
     </g>
    </g>
    <g id="text_18">
     <!-- Corriente (Id) -->
     <g transform="translate(18.882813 241.485156) rotate(-90) scale(0.1 -0.1)">
      <defs>
       <path id="DejaVuSans-43" d="M 4122 4306 
L 4122 3641 
Q 3803 3938 3442 4084 
Q 3081 4231 2675 4231 
Q 1875 4231 1450 3742 
Q 1025 3253 1025 2328 
Q 1025 1406 1450 917 
Q 1875 428 2675 428 
Q 3081 428 3442 575 
Q 3803 722 4122 1019 
L 4122 359 
Q 3791 134 3420 21 
Q 3050 -91 2638 -91 
Q 1578 -91 968 557 
Q 359 1206 359 2328 
Q 359 3453 968 4101 
Q 1578 4750 2638 4750 
Q 3056 4750 3426 4639 
Q 3797 4528 4122 4306 
z
" transform="scale(0.015625)"/>
       <path id="DejaVuSans-72" d="M 2631 2963 
Q 2534 3019 2420 3045 
Q 2306 3072 2169 3072 
Q 1681 3072 1420 2755 
Q 1159 2438 1159 1844 
L 1159 0 
L 581 0 
L 581 3500 
L 1159 3500 
L 1159 2956 
Q 1341 3275 1631 3429 
Q 1922 3584 2338 3584 
Q 2397 3584 2469 3576 
Q 2541 3569 2628 3553 
L 2631 2963 
z
" transform="scale(0.015625)"/>
       <path id="DejaVuSans-69" d="M 603 3500 
L 1178 3500 
L 1178 0 
L 603 0 
L 603 3500 
z
M 603 4863 
L 1178 4863 
L 1178 4134 
L 603 4134 
L 603 4863 
z
" transform="scale(0.015625)"/>
       <path id="DejaVuSans-6e" d="M 3513 2113 
L 3513 0 
L 2938 0 
L 2938 2094 
Q 2938 2591 2744 2837 
Q 2550 3084 2163 3084 
Q 1697 3084 1428 2787 
Q 1159 2491 1159 1978 
L 1159 0 
L 581 0 
L 581 3500 
L 1159 3500 
L 1159 2956 
Q 1366 3272 1645 3428 
Q 1925 3584 2291 3584 
Q 2894 3584 3203 3211 
Q 3513 2838 3513 2113 
z
" transform="scale(0.015625)"/>
       <path id="DejaVuSans-49" d="M 628 4666 
L 1259 4666 
L 1259 0 
L 628 0 
L 628 4666 
z
" transform="scale(0.015625)"/>
       <path id="DejaVuSans-64" d="M 2906 2969 
L 2906 4863 
L 3481 4863 
L 3481 0 
L 2906 0 
L 2906 525 
Q 2725 213 2448 61 
Q 2172 -91 1784 -91 
Q 1150 -91 751 415 
Q 353 922 353 1747 
Q 353 2572 751 3078 
Q 1150 3584 1784 3584 
Q 2172 3584 2448 3432 
Q 2725 3281 2906 2969 
z
M 947 1747 
Q 947 1113 1208 752 
Q 1469 391 1925 391 
Q 2381 391 2643 752 
Q 2906 1113 2906 1747 
Q 2906 2381 2643 2742 
Q 2381 3103 1925 3103 
Q 1469 3103 1208 2742 
Q 947 2381 947 1747 
z
" transform="scale(0.015625)"/>
      </defs>
      <use xlink:href="#DejaVuSans-43"/>
      <use xlink:href="#DejaVuSans-6f" x="69.824219"/>
      <use xlink:href="#DejaVuSans-72" x="131.005859"/>
      <use xlink:href="#DejaVuSans-72" x="170.369141"/>
      <use xlink:href="#DejaVuSans-69" x="211.482422"/>
      <use xlink:href="#DejaVuSans-65" x="239.265625"/>
      <use xlink:href="#DejaVuSans-6e" x="300.789062"/>
      <use xlink:href="#DejaVuSans-74" x="364.167969"/>
      <use xlink:href="#DejaVuSans-65" x="403.376953"/>
      <use xlink:href="#DejaVuSans-20" x="464.900391"/>
      <use xlink:href="#DejaVuSans-28" x="496.6875"/>
      <use xlink:href="#DejaVuSans-49" x="535.701172"/>
      <use xlink:href="#DejaVuSans-64" x="565.193359"/>
      <use xlink:href="#DejaVuSans-29" x="628.669922"/>
     </g>
    </g>
   </g>
   <g id="line2d_33">
    <path d="M 74.420455 373.499999 
L 132.379182 373.388945 
L 134.248818 373.050692 
L 136.118455 372.477994 
L 137.988091 371.664314 
L 139.857727 370.604009 
L 141.727364 369.292472 
L 143.713852 367.619803 
L 145.700341 365.656839 
L 147.803682 363.260606 
L 150.023875 360.376951 
L 152.36092 356.951036 
L 154.697966 353.12968 
L 157.151864 348.69966 
L 159.839466 343.369464 
L 162.64392 337.292105 
L 165.565227 330.424956 
L 168.720239 322.424305 
L 172.108955 313.196116 
L 175.731375 302.65661 
L 179.5875 290.73578 
L 183.794182 276.988473 
L 188.35142 261.32351 
L 193.49292 242.821542 
L 199.218682 221.358809 
L 205.879261 195.495559 
L 213.942068 163.255535 
L 214.643182 160.416258 
L 214.643182 160.416258 
" clip-path="url(#p463cbcb321)" style="fill: none; stroke: #0000ff; stroke-width: 1.5; stroke-linecap: square"/>
   </g>
   <g id="line2d_34">
    <path d="M 74.420455 373.5 
L 541.829545 373.499999 
L 541.829545 373.499999 
" clip-path="url(#p463cbcb321)" style="fill: none; stroke: #008000; stroke-width: 1.5; stroke-linecap: square"/>
   </g>
   <g id="line2d_35">
    <path d="M 74.420455 373.5 
L 75.775941 373.335344 
L 79.188027 373.330743 
L 541.829545 373.321341 
L 541.829545 373.321341 
" clip-path="url(#p463cbcb321)" style="fill: none; stroke: #008000; stroke-width: 1.5; stroke-linecap: square"/>
   </g>
   <g id="line2d_36">
    <path d="M 74.420455 373.5 
L 76.079757 372.561821 
L 77.622207 371.938421 
L 79.05949 371.593032 
L 80.414976 371.493566 
L 541.829545 371.08025 
L 541.829545 371.08025 
" clip-path="url(#p463cbcb321)" style="fill: none; stroke: #008000; stroke-width: 1.5; stroke-linecap: square"/>
   </g>
   <g id="line2d_37">
    <path d="M 74.420455 373.5 
L 76.465369 371.613537 
L 78.346691 370.171751 
L 80.076105 369.118603 
L 81.676981 368.397884 
L 83.161005 367.967895 
L 84.551547 367.791454 
L 87.55465 367.774363 
L 340.422968 366.753166 
L 541.829545 365.712533 
L 541.829545 365.712533 
" clip-path="url(#p463cbcb321)" style="fill: none; stroke: #008000; stroke-width: 1.5; stroke-linecap: square"/>
   </g>
   <g id="line2d_38">
    <path d="M 74.420455 373.5 
L 76.862667 370.52459 
L 79.117916 368.117478 
L 81.186201 366.226192 
L 83.090893 364.778277 
L 84.843677 363.718307 
L 86.467924 362.990697 
L 87.975318 362.554256 
L 89.389231 362.372251 
L 92.614353 362.336388 
L 230.348127 360.936412 
L 350.2853 359.501535 
L 455.031677 358.033266 
L 541.829545 356.622106 
L 541.829545 356.622106 
" clip-path="url(#p463cbcb321)" style="fill: none; stroke: #008000; stroke-width: 1.5; stroke-linecap: square"/>
   </g>
   <g id="line2d_39">
    <path d="M 74.420455 373.5 
L 77.283335 369.300123 
L 79.924197 365.81088 
L 82.354724 362.959926 
L 84.574917 360.688109 
L 86.619832 358.904002 
L 88.501153 357.548626 
L 90.242252 356.561071 
L 91.854814 355.895793 
L 93.362208 355.509854 
L 94.77612 355.372927 
L 187.089416 353.53413 
L 269.972733 351.672945 
L 349.198574 349.660891 
L 418.351749 347.674807 
L 479.640766 345.696064 
L 534.421111 343.718448 
L 541.829545 343.433811 
L 541.829545 343.433811 
" clip-path="url(#p463cbcb321)" style="fill: none; stroke: #008000; stroke-width: 1.5; stroke-linecap: square"/>
   </g>
   <g id="line2d_40">
    <path d="M 74.420455 373.5 
L 77.704003 367.985348 
L 80.730477 363.325706 
L 83.523247 359.424418 
L 86.093997 356.206553 
L 88.454413 353.598992 
L 90.627865 351.520704 
L 92.626039 349.909129 
L 94.472305 348.698427 
L 96.178348 347.838807 
L 97.767539 347.281682 
L 99.251562 346.991849 
L 100.969291 346.904824 
L 169.3045 344.596583 
L 245.316903 341.749652 
L 286.670923 340.050886 
L 322.696478 338.470242 
L 377.114582 335.8782 
L 426.472982 333.279962 
L 468.644967 330.841425 
L 505.511859 328.518656 
L 538.125328 326.294494 
L 541.829545 326.030913 
L 541.829545 326.030913 
" clip-path="url(#p463cbcb321)" style="fill: none; stroke: #008000; stroke-width: 1.5; stroke-linecap: square"/>
   </g>
   <g id="line2d_41">
    <path d="M 74.420455 373.5 
L 78.124672 366.598808 
L 81.548443 360.678918 
L 84.703455 355.656187 
L 87.613076 351.430701 
L 90.300678 347.910118 
L 92.777947 345.02323 
L 95.044881 342.712096 
L 97.136536 340.886685 
L 99.052914 339.496752 
L 100.840753 338.46556 
L 102.48837 337.761902 
L 104.042506 337.3336 
L 105.514844 337.155954 
L 141.072991 335.338365 
L 201.357078 332.044936 
L 254.746882 328.8592 
L 299.13906 325.978539 
L 337.653569 323.27973 
L 388.273974 319.403121 
L 416.225037 317.078557 
L 453.068559 313.784595 
L 485.892362 310.601494 
L 515.011949 307.555356 
L 541.151802 304.621228 
L 541.829545 304.542443 
L 541.829545 304.542443 
" clip-path="url(#p463cbcb321)" style="fill: none; stroke: #008000; stroke-width: 1.5; stroke-linecap: square"/>
   </g>
   <g id="line2d_42">
    <path d="M 74.420455 373.5 
L 78.54534 365.154328 
L 82.366409 357.913181 
L 85.907033 351.670142 
L 89.167211 346.361249 
L 92.182 341.866597 
L 94.951399 338.124988 
L 97.475408 335.070046 
L 99.859194 332.526173 
L 102.032647 330.523115 
L 104.054191 328.956097 
L 105.900457 327.796633 
L 107.641556 326.961703 
L 109.254117 326.431345 
L 110.761511 326.164596 
L 115.143472 325.844968 
L 160.727543 322.452371 
L 205.213203 318.925305 
L 242.302115 315.788157 
L 274.611768 312.885852 
L 316.187807 308.883719 
L 351.500564 305.213437 
L 382.781917 301.724194 
L 410.744666 298.391905 
L 444.363065 294.085424 
L 473.073668 290.11559 
L 493.148889 287.161443 
L 516.717992 283.486367 
L 541.829545 279.300195 
L 541.829545 279.300195 
" clip-path="url(#p463cbcb321)" style="fill: none; stroke: #008000; stroke-width: 1.5; stroke-linecap: square"/>
   </g>
   <g id="line2d_43">
    <path d="M 74.420455 373.5 
L 78.977693 363.637831 
L 83.19606 355.026818 
L 87.110611 347.530624 
L 90.721347 341.084237 
L 94.075007 335.542058 
L 97.171592 330.845238 
L 100.022787 326.91418 
L 102.663649 323.643293 
L 105.094176 320.978157 
L 107.326055 318.849828 
L 109.39434 317.175202 
L 111.299032 315.908887 
L 113.063501 314.992256 
L 114.711118 314.377785 
L 116.265253 314.029615 
L 118.847689 313.763735 
L 162.293364 309.378132 
L 196.998489 305.685814 
L 239.380808 300.896246 
L 273.910655 296.724709 
L 304.315616 292.819193 
L 331.413658 289.131136 
L 355.894209 285.612201 
L 385.142333 281.14885 
L 405.205868 277.907319 
L 428.856768 273.879166 
L 450.801625 269.922622 
L 475.936549 265.105605 
L 493.955169 261.447212 
L 514.673077 257.008926 
L 538.055217 251.733692 
L 541.829545 250.881912 
L 541.829545 250.881912 
" clip-path="url(#p463cbcb321)" style="fill: none; stroke: #008000; stroke-width: 1.5; stroke-linecap: square"/>
   </g>
   <g id="line2d_44">
    <path d="M 74.420455 373.5 
L 79.398361 362.105084 
L 84.025711 352.056451 
L 88.31419 343.263623 
L 92.322223 335.547637 
L 96.014755 328.914574 
L 99.426841 323.233693 
L 102.558482 318.438013 
L 105.456418 314.39287 
L 108.179076 310.970328 
L 110.656344 308.20507 
L 112.923278 305.993189 
L 115.038305 304.229011 
L 117.013108 302.865939 
L 118.859374 301.861382 
L 120.542047 301.192126 
L 122.154608 300.789535 
L 124.924007 300.423365 
L 155.726266 296.394315 
L 198.213752 290.573331 
L 231.166093 285.796296 
L 259.642992 281.44773 
L 284.836342 277.406204 
L 314.633672 272.360457 
L 340.726784 267.677292 
L 364.342628 263.20124 
L 385.890187 258.900338 
L 410.592758 253.689647 
L 428.424415 249.72542 
L 448.920303 244.939665 
L 467.873742 240.27778 
L 485.424953 235.741419 
L 504.950968 230.426148 
L 541.829545 219.95811 
L 541.829545 219.95811 
" clip-path="url(#p463cbcb321)" style="fill: none; stroke: #008000; stroke-width: 1.5; stroke-linecap: square"/>
   </g>
   <g id="line2d_45">
    <path d="M 74.420455 373.5 
L 79.830715 360.512142 
L 84.855362 349.015632 
L 89.529453 338.864954 
L 93.864673 329.970299 
L 97.907761 322.17508 
L 101.623664 315.481679 
L 105.047435 309.755462 
L 108.214132 304.873959 
L 111.193865 300.681002 
L 113.951578 297.180235 
L 116.463902 294.339248 
L 118.800948 292.022394 
L 120.9744 290.175198 
L 122.972574 288.761517 
L 124.81884 287.718381 
L 126.559939 286.985564 
L 128.19587 286.537131 
L 131.713124 285.958128 
L 170.60156 279.50058 
L 204.640627 273.589062 
L 231.680243 268.675232 
L 255.249347 264.207787 
L 282.581093 258.782665 
L 306.734458 253.743254 
L 328.609203 248.958369 
L 348.614312 244.380597 
L 367.088657 239.966816 
L 388.145436 234.699096 
L 407.519543 229.61048 
L 429.160584 223.627775 
L 448.581432 217.967025 
L 466.600052 212.446911 
L 483.356668 207.063508 
L 501.679105 200.879746 
L 541.829545 186.990597 
L 541.829545 186.990597 
" clip-path="url(#p463cbcb321)" style="fill: none; stroke: #008000; stroke-width: 1.5; stroke-linecap: square"/>
   </g>
   <g id="line2d_46">
    <path d="M 74.420455 373.5 
L 80.251383 358.917645 
L 85.685014 345.915172 
L 90.733032 334.39908 
L 95.407123 324.273437 
L 99.789083 315.301089 
L 103.820486 307.538842 
L 107.6065 300.724067 
L 111.088698 294.904316 
L 114.31382 289.936178 
L 117.305239 285.726762 
L 120.062952 282.219099 
L 122.586961 279.351728 
L 124.935692 277.004931 
L 127.132515 275.115397 
L 129.154059 273.660221 
L 131.023695 272.576823 
L 132.77648 271.809071 
L 134.412411 271.326377 
L 140.114802 270.18138 
L 167.855532 264.543565 
L 199.055089 257.992202 
L 223.745974 252.605996 
L 251.194573 246.367252 
L 274.775361 240.765016 
L 295.937308 235.522362 
L 315.206248 230.553326 
L 337.057623 224.671192 
L 356.94588 219.068255 
L 375.303372 213.667105 
L 392.363803 208.434263 
L 411.352298 202.349418 
L 428.833398 196.486181 
L 445.145975 190.771711 
L 460.430252 185.189438 
L 474.791397 179.730025 
L 490.508027 173.50174 
L 506.283084 166.985172 
L 536.045358 154.751162 
L 541.829545 152.406916 
L 541.829545 152.406916 
" clip-path="url(#p463cbcb321)" style="fill: none; stroke: #008000; stroke-width: 1.5; stroke-linecap: square"/>
   </g>
   <g id="line2d_47">
    <path d="M 74.420455 373.5 
L 80.683736 357.269896 
L 86.538035 342.706909 
L 91.889869 329.964635 
L 96.902832 318.578032 
L 101.623664 308.39295 
L 105.958883 299.548566 
L 110.048712 291.698505 
L 113.893152 284.802197 
L 117.363665 279.019624 
L 120.635528 273.991793 
L 123.673687 269.727536 
L 126.431401 266.226518 
L 129.002151 263.30924 
L 131.397623 260.919069 
L 133.594445 259.030068 
L 135.651045 257.547107 
L 137.555737 256.440577 
L 139.343577 255.654741 
L 141.02625 255.154916 
L 173.008717 247.366846 
L 202.268526 240.021237 
L 224.400347 234.277692 
L 248.495285 227.803321 
L 269.575435 221.922084 
L 288.517189 216.443718 
L 309.760932 210.05831 
L 329.064927 204.013445 
L 346.849843 198.221424 
L 366.609562 191.514229 
L 381.800358 186.148209 
L 398.732252 179.936241 
L 414.612476 173.873713 
L 432.023465 166.944994 
L 445.870459 161.210169 
L 461.084625 154.664779 
L 475.422399 148.247996 
L 488.977262 141.946421 
L 502.169884 135.587676 
L 525.902581 124.151503 
L 541.829545 116.599341 
L 541.829545 116.599341 
" clip-path="url(#p463cbcb321)" style="fill: none; stroke: #008000; stroke-width: 1.5; stroke-linecap: square"/>
   </g>
   <g id="line2d_48">
    <path d="M 74.420455 373.5 
L 81.11609 355.599902 
L 87.367686 339.509621 
L 93.2103 325.076796 
L 98.655616 312.210064 
L 103.773745 300.687422 
L 108.482892 290.627415 
L 112.818111 281.874321 
L 116.907941 274.109999 
L 120.682269 267.41329 
L 124.176152 261.655699 
L 127.459701 256.670149 
L 130.462805 252.506407 
L 133.243889 249.019939 
L 135.826324 246.130055 
L 138.198425 243.796883 
L 140.418618 241.916406 
L 142.463533 240.465884 
L 144.35654 239.383635 
L 146.14438 238.61008 
L 148.119183 238.012516 
L 189.08759 226.199321 
L 212.808601 219.139863 
L 237.102189 211.679356 
L 262.494187 203.581751 
L 283.93658 196.467844 
L 303.287316 189.803967 
L 320.97875 183.488709 
L 337.338068 177.443396 
L 355.415115 170.515097 
L 372.171731 163.842389 
L 387.829935 157.373288 
L 404.972164 150.01366 
L 418.66725 143.91202 
L 433.694452 136.975478 
L 447.892003 130.176012 
L 463.258077 122.531129 
L 475.878123 116.017422 
L 489.549839 108.708037 
L 503.151443 101.173258 
L 530.284541 86.196308 
L 538.008476 81.993482 
L 541.829545 79.923751 
L 541.829545 79.923751 
" clip-path="url(#p463cbcb321)" style="fill: none; stroke: #008000; stroke-width: 1.5; stroke-linecap: square"/>
   </g>
   <g id="line2d_49">
    <path d="M 74.420455 373.5 
L 81.548443 353.910629 
L 88.209023 336.244146 
L 94.519045 320.140676 
L 100.279862 306.036731 
L 105.701808 293.341336 
L 110.808252 281.953836 
L 115.505714 272.018399 
L 119.840933 263.356876 
L 123.860651 255.806116 
L 127.63498 249.179753 
L 131.140548 243.467442 
L 134.389041 238.591491 
L 137.392144 234.475357 
L 140.196599 231.00302 
L 142.802405 228.127771 
L 145.197876 225.809712 
L 147.429755 223.954721 
L 149.49804 222.520433 
L 151.402732 221.461819 
L 153.213942 220.707189 
L 162.959422 217.480798 
L 193.411124 207.280743 
L 216.594615 199.320215 
L 239.076992 191.380798 
L 262.307224 182.901968 
L 282.101999 175.421722 
L 299.957026 168.448226 
L 316.316344 161.8522 
L 334.288224 154.3583 
L 350.869561 147.195692 
L 366.352487 140.275972 
L 383.237641 132.456276 
L 398.919216 124.921105 
L 413.677658 117.573561 
L 427.618134 110.391382 
L 442.692077 102.34503 
L 455.14853 95.463947 
L 468.621597 87.772018 
L 478.729318 81.823294 
L 493.885058 72.60259 
L 541.829545 42.7 
L 541.829545 42.7 
" clip-path="url(#p463cbcb321)" style="fill: none; stroke: #008000; stroke-width: 1.5; stroke-linecap: square"/>
   </g>
   <g id="patch_3">
    <path d="M 51.05 390.04 
L 51.05 26.16 
" style="fill: none; stroke: #000000; stroke-width: 0.8; stroke-linejoin: miter; stroke-linecap: square"/>
   </g>
   <g id="patch_4">
    <path d="M 565.2 390.04 
L 565.2 26.16 
" style="fill: none; stroke: #000000; stroke-width: 0.8; stroke-linejoin: miter; stroke-linecap: square"/>
   </g>
   <g id="patch_5">
    <path d="M 51.05 390.04 
L 565.2 390.04 
" style="fill: none; stroke: #000000; stroke-width: 0.8; stroke-linejoin: miter; stroke-linecap: square"/>
   </g>
   <g id="patch_6">
    <path d="M 51.05 26.16 
L 565.2 26.16 
" style="fill: none; stroke: #000000; stroke-width: 0.8; stroke-linejoin: miter; stroke-linecap: square"/>
   </g>
   <g id="text_19">
    <!-- Gráficas de Id vs Vgs y Id vs Vds -->
    <g transform="translate(210.554687 20.16) scale(0.12 -0.12)">
     <defs>
      <path id="DejaVuSans-47" d="M 3809 666 
L 3809 1919 
L 2778 1919 
L 2778 2438 
L 4434 2438 
L 4434 434 
Q 4069 175 3628 42 
Q 3188 -91 2688 -91 
Q 1594 -91 976 548 
Q 359 1188 359 2328 
Q 359 3472 976 4111 
Q 1594 4750 2688 4750 
Q 3144 4750 3555 4637 
Q 3966 4525 4313 4306 
L 4313 3634 
Q 3963 3931 3569 4081 
Q 3175 4231 2741 4231 
Q 1884 4231 1454 3753 
Q 1025 3275 1025 2328 
Q 1025 1384 1454 906 
Q 1884 428 2741 428 
Q 3075 428 3337 486 
Q 3600 544 3809 666 
z
" transform="scale(0.015625)"/>
      <path id="DejaVuSans-e1" d="M 2194 1759 
Q 1497 1759 1228 1600 
Q 959 1441 959 1056 
Q 959 750 1161 570 
Q 1363 391 1709 391 
Q 2188 391 2477 730 
Q 2766 1069 2766 1631 
L 2766 1759 
L 2194 1759 
z
M 3341 1997 
L 3341 0 
L 2766 0 
L 2766 531 
Q 2569 213 2275 61 
Q 1981 -91 1556 -91 
Q 1019 -91 701 211 
Q 384 513 384 1019 
Q 384 1609 779 1909 
Q 1175 2209 1959 2209 
L 2766 2209 
L 2766 2266 
Q 2766 2663 2505 2880 
Q 2244 3097 1772 3097 
Q 1472 3097 1187 3025 
Q 903 2953 641 2809 
L 641 3341 
Q 956 3463 1253 3523 
Q 1550 3584 1831 3584 
Q 2591 3584 2966 3190 
Q 3341 2797 3341 1997 
z
M 2291 5119 
L 2913 5119 
L 1894 3944 
L 1416 3944 
L 2291 5119 
z
" transform="scale(0.015625)"/>
      <path id="DejaVuSans-66" d="M 2375 4863 
L 2375 4384 
L 1825 4384 
Q 1516 4384 1395 4259 
Q 1275 4134 1275 3809 
L 1275 3500 
L 2222 3500 
L 2222 3053 
L 1275 3053 
L 1275 0 
L 697 0 
L 697 3053 
L 147 3053 
L 147 3500 
L 697 3500 
L 697 3744 
Q 697 4328 969 4595 
Q 1241 4863 1831 4863 
L 2375 4863 
z
" transform="scale(0.015625)"/>
      <path id="DejaVuSans-63" d="M 3122 3366 
L 3122 2828 
Q 2878 2963 2633 3030 
Q 2388 3097 2138 3097 
Q 1578 3097 1268 2742 
Q 959 2388 959 1747 
Q 959 1106 1268 751 
Q 1578 397 2138 397 
Q 2388 397 2633 464 
Q 2878 531 3122 666 
L 3122 134 
Q 2881 22 2623 -34 
Q 2366 -91 2075 -91 
Q 1284 -91 818 406 
Q 353 903 353 1747 
Q 353 2603 823 3093 
Q 1294 3584 2113 3584 
Q 2378 3584 2631 3529 
Q 2884 3475 3122 3366 
z
" transform="scale(0.015625)"/>
      <path id="DejaVuSans-73" d="M 2834 3397 
L 2834 2853 
Q 2591 2978 2328 3040 
Q 2066 3103 1784 3103 
Q 1356 3103 1142 2972 
Q 928 2841 928 2578 
Q 928 2378 1081 2264 
Q 1234 2150 1697 2047 
L 1894 2003 
Q 2506 1872 2764 1633 
Q 3022 1394 3022 966 
Q 3022 478 2636 193 
Q 2250 -91 1575 -91 
Q 1294 -91 989 -36 
Q 684 19 347 128 
L 347 722 
Q 666 556 975 473 
Q 1284 391 1588 391 
Q 1994 391 2212 530 
Q 2431 669 2431 922 
Q 2431 1156 2273 1281 
Q 2116 1406 1581 1522 
L 1381 1569 
Q 847 1681 609 1914 
Q 372 2147 372 2553 
Q 372 3047 722 3315 
Q 1072 3584 1716 3584 
Q 2034 3584 2315 3537 
Q 2597 3491 2834 3397 
z
" transform="scale(0.015625)"/>
      <path id="DejaVuSans-76" d="M 191 3500 
L 800 3500 
L 1894 563 
L 2988 3500 
L 3597 3500 
L 2284 0 
L 1503 0 
L 191 3500 
z
" transform="scale(0.015625)"/>
      <path id="DejaVuSans-67" d="M 2906 1791 
Q 2906 2416 2648 2759 
Q 2391 3103 1925 3103 
Q 1463 3103 1205 2759 
Q 947 2416 947 1791 
Q 947 1169 1205 825 
Q 1463 481 1925 481 
Q 2391 481 2648 825 
Q 2906 1169 2906 1791 
z
M 3481 434 
Q 3481 -459 3084 -895 
Q 2688 -1331 1869 -1331 
Q 1566 -1331 1297 -1286 
Q 1028 -1241 775 -1147 
L 775 -588 
Q 1028 -725 1275 -790 
Q 1522 -856 1778 -856 
Q 2344 -856 2625 -561 
Q 2906 -266 2906 331 
L 2906 616 
Q 2728 306 2450 153 
Q 2172 0 1784 0 
Q 1141 0 747 490 
Q 353 981 353 1791 
Q 353 2603 747 3093 
Q 1141 3584 1784 3584 
Q 2172 3584 2450 3431 
Q 2728 3278 2906 2969 
L 2906 3500 
L 3481 3500 
L 3481 434 
z
" transform="scale(0.015625)"/>
      <path id="DejaVuSans-79" d="M 2059 -325 
Q 1816 -950 1584 -1140 
Q 1353 -1331 966 -1331 
L 506 -1331 
L 506 -850 
L 844 -850 
Q 1081 -850 1212 -737 
Q 1344 -625 1503 -206 
L 1606 56 
L 191 3500 
L 800 3500 
L 1894 763 
L 2988 3500 
L 3597 3500 
L 2059 -325 
z
" transform="scale(0.015625)"/>
     </defs>
     <use xlink:href="#DejaVuSans-47"/>
     <use xlink:href="#DejaVuSans-72" x="77.490234"/>
     <use xlink:href="#DejaVuSans-e1" x="118.603516"/>
     <use xlink:href="#DejaVuSans-66" x="179.882812"/>
     <use xlink:href="#DejaVuSans-69" x="215.087891"/>
     <use xlink:href="#DejaVuSans-63" x="242.871094"/>
     <use xlink:href="#DejaVuSans-61" x="297.851562"/>
     <use xlink:href="#DejaVuSans-73" x="359.130859"/>
     <use xlink:href="#DejaVuSans-20" x="411.230469"/>
     <use xlink:href="#DejaVuSans-64" x="443.017578"/>
     <use xlink:href="#DejaVuSans-65" x="506.494141"/>
     <use xlink:href="#DejaVuSans-20" x="568.017578"/>
     <use xlink:href="#DejaVuSans-49" x="599.804688"/>
     <use xlink:href="#DejaVuSans-64" x="629.296875"/>
     <use xlink:href="#DejaVuSans-20" x="692.773438"/>
     <use xlink:href="#DejaVuSans-76" x="724.560547"/>
     <use xlink:href="#DejaVuSans-73" x="783.740234"/>
     <use xlink:href="#DejaVuSans-20" x="835.839844"/>
     <use xlink:href="#DejaVuSans-56" x="867.626953"/>
     <use xlink:href="#DejaVuSans-67" x="936.035156"/>
     <use xlink:href="#DejaVuSans-73" x="999.511719"/>
     <use xlink:href="#DejaVuSans-20" x="1051.611328"/>
     <use xlink:href="#DejaVuSans-79" x="1083.398438"/>
     <use xlink:href="#DejaVuSans-20" x="1142.578125"/>
     <use xlink:href="#DejaVuSans-49" x="1174.365234"/>
     <use xlink:href="#DejaVuSans-64" x="1203.857422"/>
     <use xlink:href="#DejaVuSans-20" x="1267.333984"/>
     <use xlink:href="#DejaVuSans-76" x="1299.121094"/>
     <use xlink:href="#DejaVuSans-73" x="1358.300781"/>
     <use xlink:href="#DejaVuSans-20" x="1410.400391"/>
     <use xlink:href="#DejaVuSans-56" x="1442.1875"/>
     <use xlink:href="#DejaVuSans-64" x="1510.595703"/>
     <use xlink:href="#DejaVuSans-73" x="1574.072266"/>
    </g>
   </g>
   <g id="legend_1">
    <g id="patch_7">
     <path d="M 58.05 283.688125 
L 139.121875 283.688125 
Q 141.121875 283.688125 141.121875 281.688125 
L 141.121875 33.16 
Q 141.121875 31.16 139.121875 31.16 
L 58.05 31.16 
Q 56.05 31.16 56.05 33.16 
L 56.05 281.688125 
Q 56.05 283.688125 58.05 283.688125 
z
" style="fill: #ffffff; opacity: 0.8; stroke: #cccccc; stroke-linejoin: miter"/>
    </g>
    <g id="line2d_50">
     <path d="M 60.05 39.258437 
L 70.05 39.258437 
L 80.05 39.258437 
" style="fill: none; stroke: #0000ff; stroke-width: 1.5; stroke-linecap: square"/>
    </g>
    <g id="text_20">
     <!-- ID vs VGS -->
     <g transform="translate(88.05 42.758437) scale(0.1 -0.1)">
      <use xlink:href="#DejaVuSans-49"/>
      <use xlink:href="#DejaVuSans-44" x="29.492188"/>
      <use xlink:href="#DejaVuSans-20" x="106.494141"/>
      <use xlink:href="#DejaVuSans-76" x="138.28125"/>
      <use xlink:href="#DejaVuSans-73" x="197.460938"/>
      <use xlink:href="#DejaVuSans-20" x="249.560547"/>
      <use xlink:href="#DejaVuSans-56" x="281.347656"/>
      <use xlink:href="#DejaVuSans-47" x="349.755859"/>
      <use xlink:href="#DejaVuSans-53" x="427.246094"/>
     </g>
    </g>
    <g id="line2d_51">
     <path d="M 60.05 53.936562 
L 70.05 53.936562 
L 80.05 53.936562 
" style="fill: none; stroke: #008000; stroke-width: 1.5; stroke-linecap: square"/>
    </g>
    <g id="text_21">
     <!-- VGS 2.0 -->
     <g transform="translate(88.05 57.436562) scale(0.1 -0.1)">
      <defs>
       <path id="DejaVuSans-2e" d="M 684 794 
L 1344 794 
L 1344 0 
L 684 0 
L 684 794 
z
" transform="scale(0.015625)"/>
      </defs>
      <use xlink:href="#DejaVuSans-56"/>
      <use xlink:href="#DejaVuSans-47" x="68.408203"/>
      <use xlink:href="#DejaVuSans-53" x="145.898438"/>
      <use xlink:href="#DejaVuSans-20" x="209.375"/>
      <use xlink:href="#DejaVuSans-32" x="241.162109"/>
      <use xlink:href="#DejaVuSans-2e" x="304.785156"/>
      <use xlink:href="#DejaVuSans-30" x="336.572266"/>
     </g>
    </g>
    <g id="line2d_52">
     <path d="M 60.05 68.614687 
L 70.05 68.614687 
L 80.05 68.614687 
" style="fill: none; stroke: #008000; stroke-width: 1.5; stroke-linecap: square"/>
    </g>
    <g id="text_22">
     <!-- VGS 2.5 -->
     <g transform="translate(88.05 72.114687) scale(0.1 -0.1)">
      <use xlink:href="#DejaVuSans-56"/>
      <use xlink:href="#DejaVuSans-47" x="68.408203"/>
      <use xlink:href="#DejaVuSans-53" x="145.898438"/>
      <use xlink:href="#DejaVuSans-20" x="209.375"/>
      <use xlink:href="#DejaVuSans-32" x="241.162109"/>
      <use xlink:href="#DejaVuSans-2e" x="304.785156"/>
      <use xlink:href="#DejaVuSans-35" x="336.572266"/>
     </g>
    </g>
    <g id="line2d_53">
     <path d="M 60.05 83.292812 
L 70.05 83.292812 
L 80.05 83.292812 
" style="fill: none; stroke: #008000; stroke-width: 1.5; stroke-linecap: square"/>
    </g>
    <g id="text_23">
     <!-- VGS 3.0 -->
     <g transform="translate(88.05 86.792812) scale(0.1 -0.1)">
      <use xlink:href="#DejaVuSans-56"/>
      <use xlink:href="#DejaVuSans-47" x="68.408203"/>
      <use xlink:href="#DejaVuSans-53" x="145.898438"/>
      <use xlink:href="#DejaVuSans-20" x="209.375"/>
      <use xlink:href="#DejaVuSans-33" x="241.162109"/>
      <use xlink:href="#DejaVuSans-2e" x="304.785156"/>
      <use xlink:href="#DejaVuSans-30" x="336.572266"/>
     </g>
    </g>
    <g id="line2d_54">
     <path d="M 60.05 97.970937 
L 70.05 97.970937 
L 80.05 97.970937 
" style="fill: none; stroke: #008000; stroke-width: 1.5; stroke-linecap: square"/>
    </g>
    <g id="text_24">
     <!-- VGS 3.5 -->
     <g transform="translate(88.05 101.470937) scale(0.1 -0.1)">
      <use xlink:href="#DejaVuSans-56"/>
      <use xlink:href="#DejaVuSans-47" x="68.408203"/>
      <use xlink:href="#DejaVuSans-53" x="145.898438"/>
      <use xlink:href="#DejaVuSans-20" x="209.375"/>
      <use xlink:href="#DejaVuSans-33" x="241.162109"/>
      <use xlink:href="#DejaVuSans-2e" x="304.785156"/>
      <use xlink:href="#DejaVuSans-35" x="336.572266"/>
     </g>
    </g>
    <g id="line2d_55">
     <path d="M 60.05 112.649062 
L 70.05 112.649062 
L 80.05 112.649062 
" style="fill: none; stroke: #008000; stroke-width: 1.5; stroke-linecap: square"/>
    </g>
    <g id="text_25">
     <!-- VGS 4.0 -->
     <g transform="translate(88.05 116.149062) scale(0.1 -0.1)">
      <use xlink:href="#DejaVuSans-56"/>
      <use xlink:href="#DejaVuSans-47" x="68.408203"/>
      <use xlink:href="#DejaVuSans-53" x="145.898438"/>
      <use xlink:href="#DejaVuSans-20" x="209.375"/>
      <use xlink:href="#DejaVuSans-34" x="241.162109"/>
      <use xlink:href="#DejaVuSans-2e" x="304.785156"/>
      <use xlink:href="#DejaVuSans-30" x="336.572266"/>
     </g>
    </g>
    <g id="line2d_56">
     <path d="M 60.05 127.327187 
L 70.05 127.327187 
L 80.05 127.327187 
" style="fill: none; stroke: #008000; stroke-width: 1.5; stroke-linecap: square"/>
    </g>
    <g id="text_26">
     <!-- VGS 4.5 -->
     <g transform="translate(88.05 130.827187) scale(0.1 -0.1)">
      <use xlink:href="#DejaVuSans-56"/>
      <use xlink:href="#DejaVuSans-47" x="68.408203"/>
      <use xlink:href="#DejaVuSans-53" x="145.898438"/>
      <use xlink:href="#DejaVuSans-20" x="209.375"/>
      <use xlink:href="#DejaVuSans-34" x="241.162109"/>
      <use xlink:href="#DejaVuSans-2e" x="304.785156"/>
      <use xlink:href="#DejaVuSans-35" x="336.572266"/>
     </g>
    </g>
    <g id="line2d_57">
     <path d="M 60.05 142.005312 
L 70.05 142.005312 
L 80.05 142.005312 
" style="fill: none; stroke: #008000; stroke-width: 1.5; stroke-linecap: square"/>
    </g>
    <g id="text_27">
     <!-- VGS 5.0 -->
     <g transform="translate(88.05 145.505312) scale(0.1 -0.1)">
      <use xlink:href="#DejaVuSans-56"/>
      <use xlink:href="#DejaVuSans-47" x="68.408203"/>
      <use xlink:href="#DejaVuSans-53" x="145.898438"/>
      <use xlink:href="#DejaVuSans-20" x="209.375"/>
      <use xlink:href="#DejaVuSans-35" x="241.162109"/>
      <use xlink:href="#DejaVuSans-2e" x="304.785156"/>
      <use xlink:href="#DejaVuSans-30" x="336.572266"/>
     </g>
    </g>
    <g id="line2d_58">
     <path d="M 60.05 156.683437 
L 70.05 156.683437 
L 80.05 156.683437 
" style="fill: none; stroke: #008000; stroke-width: 1.5; stroke-linecap: square"/>
    </g>
    <g id="text_28">
     <!-- VGS 5.5 -->
     <g transform="translate(88.05 160.183437) scale(0.1 -0.1)">
      <use xlink:href="#DejaVuSans-56"/>
      <use xlink:href="#DejaVuSans-47" x="68.408203"/>
      <use xlink:href="#DejaVuSans-53" x="145.898438"/>
      <use xlink:href="#DejaVuSans-20" x="209.375"/>
      <use xlink:href="#DejaVuSans-35" x="241.162109"/>
      <use xlink:href="#DejaVuSans-2e" x="304.785156"/>
      <use xlink:href="#DejaVuSans-35" x="336.572266"/>
     </g>
    </g>
    <g id="line2d_59">
     <path d="M 60.05 171.361562 
L 70.05 171.361562 
L 80.05 171.361562 
" style="fill: none; stroke: #008000; stroke-width: 1.5; stroke-linecap: square"/>
    </g>
    <g id="text_29">
     <!-- VGS 6.0 -->
     <g transform="translate(88.05 174.861562) scale(0.1 -0.1)">
      <use xlink:href="#DejaVuSans-56"/>
      <use xlink:href="#DejaVuSans-47" x="68.408203"/>
      <use xlink:href="#DejaVuSans-53" x="145.898438"/>
      <use xlink:href="#DejaVuSans-20" x="209.375"/>
      <use xlink:href="#DejaVuSans-36" x="241.162109"/>
      <use xlink:href="#DejaVuSans-2e" x="304.785156"/>
      <use xlink:href="#DejaVuSans-30" x="336.572266"/>
     </g>
    </g>
    <g id="line2d_60">
     <path d="M 60.05 186.039687 
L 70.05 186.039687 
L 80.05 186.039687 
" style="fill: none; stroke: #008000; stroke-width: 1.5; stroke-linecap: square"/>
    </g>
    <g id="text_30">
     <!-- VGS 6.5 -->
     <g transform="translate(88.05 189.539687) scale(0.1 -0.1)">
      <use xlink:href="#DejaVuSans-56"/>
      <use xlink:href="#DejaVuSans-47" x="68.408203"/>
      <use xlink:href="#DejaVuSans-53" x="145.898438"/>
      <use xlink:href="#DejaVuSans-20" x="209.375"/>
      <use xlink:href="#DejaVuSans-36" x="241.162109"/>
      <use xlink:href="#DejaVuSans-2e" x="304.785156"/>
      <use xlink:href="#DejaVuSans-35" x="336.572266"/>
     </g>
    </g>
    <g id="line2d_61">
     <path d="M 60.05 200.717812 
L 70.05 200.717812 
L 80.05 200.717812 
" style="fill: none; stroke: #008000; stroke-width: 1.5; stroke-linecap: square"/>
    </g>
    <g id="text_31">
     <!-- VGS 7.0 -->
     <g transform="translate(88.05 204.217812) scale(0.1 -0.1)">
      <defs>
       <path id="DejaVuSans-37" d="M 525 4666 
L 3525 4666 
L 3525 4397 
L 1831 0 
L 1172 0 
L 2766 4134 
L 525 4134 
L 525 4666 
z
" transform="scale(0.015625)"/>
      </defs>
      <use xlink:href="#DejaVuSans-56"/>
      <use xlink:href="#DejaVuSans-47" x="68.408203"/>
      <use xlink:href="#DejaVuSans-53" x="145.898438"/>
      <use xlink:href="#DejaVuSans-20" x="209.375"/>
      <use xlink:href="#DejaVuSans-37" x="241.162109"/>
      <use xlink:href="#DejaVuSans-2e" x="304.785156"/>
      <use xlink:href="#DejaVuSans-30" x="336.572266"/>
     </g>
    </g>
    <g id="line2d_62">
     <path d="M 60.05 215.395937 
L 70.05 215.395937 
L 80.05 215.395937 
" style="fill: none; stroke: #008000; stroke-width: 1.5; stroke-linecap: square"/>
    </g>
    <g id="text_32">
     <!-- VGS 7.5 -->
     <g transform="translate(88.05 218.895937) scale(0.1 -0.1)">
      <use xlink:href="#DejaVuSans-56"/>
      <use xlink:href="#DejaVuSans-47" x="68.408203"/>
      <use xlink:href="#DejaVuSans-53" x="145.898438"/>
      <use xlink:href="#DejaVuSans-20" x="209.375"/>
      <use xlink:href="#DejaVuSans-37" x="241.162109"/>
      <use xlink:href="#DejaVuSans-2e" x="304.785156"/>
      <use xlink:href="#DejaVuSans-35" x="336.572266"/>
     </g>
    </g>
    <g id="line2d_63">
     <path d="M 60.05 230.074062 
L 70.05 230.074062 
L 80.05 230.074062 
" style="fill: none; stroke: #008000; stroke-width: 1.5; stroke-linecap: square"/>
    </g>
    <g id="text_33">
     <!-- VGS 8.0 -->
     <g transform="translate(88.05 233.574062) scale(0.1 -0.1)">
      <use xlink:href="#DejaVuSans-56"/>
      <use xlink:href="#DejaVuSans-47" x="68.408203"/>
      <use xlink:href="#DejaVuSans-53" x="145.898438"/>
      <use xlink:href="#DejaVuSans-20" x="209.375"/>
      <use xlink:href="#DejaVuSans-38" x="241.162109"/>
      <use xlink:href="#DejaVuSans-2e" x="304.785156"/>
      <use xlink:href="#DejaVuSans-30" x="336.572266"/>
     </g>
    </g>
    <g id="line2d_64">
     <path d="M 60.05 244.752187 
L 70.05 244.752187 
L 80.05 244.752187 
" style="fill: none; stroke: #008000; stroke-width: 1.5; stroke-linecap: square"/>
    </g>
    <g id="text_34">
     <!-- VGS 8.5 -->
     <g transform="translate(88.05 248.252187) scale(0.1 -0.1)">
      <use xlink:href="#DejaVuSans-56"/>
      <use xlink:href="#DejaVuSans-47" x="68.408203"/>
      <use xlink:href="#DejaVuSans-53" x="145.898438"/>
      <use xlink:href="#DejaVuSans-20" x="209.375"/>
      <use xlink:href="#DejaVuSans-38" x="241.162109"/>
      <use xlink:href="#DejaVuSans-2e" x="304.785156"/>
      <use xlink:href="#DejaVuSans-35" x="336.572266"/>
     </g>
    </g>
    <g id="line2d_65">
     <path d="M 60.05 259.430312 
L 70.05 259.430312 
L 80.05 259.430312 
" style="fill: none; stroke: #008000; stroke-width: 1.5; stroke-linecap: square"/>
    </g>
    <g id="text_35">
     <!-- VGS 9.0 -->
     <g transform="translate(88.05 262.930312) scale(0.1 -0.1)">
      <defs>
       <path id="DejaVuSans-39" d="M 703 97 
L 703 672 
Q 941 559 1184 500 
Q 1428 441 1663 441 
Q 2288 441 2617 861 
Q 2947 1281 2994 2138 
Q 2813 1869 2534 1725 
Q 2256 1581 1919 1581 
Q 1219 1581 811 2004 
Q 403 2428 403 3163 
Q 403 3881 828 4315 
Q 1253 4750 1959 4750 
Q 2769 4750 3195 4129 
Q 3622 3509 3622 2328 
Q 3622 1225 3098 567 
Q 2575 -91 1691 -91 
Q 1453 -91 1209 -44 
Q 966 3 703 97 
z
M 1959 2075 
Q 2384 2075 2632 2365 
Q 2881 2656 2881 3163 
Q 2881 3666 2632 3958 
Q 2384 4250 1959 4250 
Q 1534 4250 1286 3958 
Q 1038 3666 1038 3163 
Q 1038 2656 1286 2365 
Q 1534 2075 1959 2075 
z
" transform="scale(0.015625)"/>
      </defs>
      <use xlink:href="#DejaVuSans-56"/>
      <use xlink:href="#DejaVuSans-47" x="68.408203"/>
      <use xlink:href="#DejaVuSans-53" x="145.898438"/>
      <use xlink:href="#DejaVuSans-20" x="209.375"/>
      <use xlink:href="#DejaVuSans-39" x="241.162109"/>
      <use xlink:href="#DejaVuSans-2e" x="304.785156"/>
      <use xlink:href="#DejaVuSans-30" x="336.572266"/>
     </g>
    </g>
    <g id="line2d_66">
     <path d="M 60.05 274.108437 
L 70.05 274.108437 
L 80.05 274.108437 
" style="fill: none; stroke: #008000; stroke-width: 1.5; stroke-linecap: square"/>
    </g>
    <g id="text_36">
     <!-- VGS 9.5 -->
     <g transform="translate(88.05 277.608437) scale(0.1 -0.1)">
      <use xlink:href="#DejaVuSans-56"/>
      <use xlink:href="#DejaVuSans-47" x="68.408203"/>
      <use xlink:href="#DejaVuSans-53" x="145.898438"/>
      <use xlink:href="#DejaVuSans-20" x="209.375"/>
      <use xlink:href="#DejaVuSans-39" x="241.162109"/>
      <use xlink:href="#DejaVuSans-2e" x="304.785156"/>
      <use xlink:href="#DejaVuSans-35" x="336.572266"/>
     </g>
    </g>
   </g>
  </g>
 </g>
 <defs>
  <clipPath id="p463cbcb321">
   <rect x="51.05" y="26.16" width="514.15" height="363.88"/>
  </clipPath>
 </defs>
</svg>
